<?xml version="1.0" encoding="UTF-8"?>
<svg viewBox="0 0 200 150" xmlns="http://www.w3.org/2000/svg">
 <defs>
  <pattern id="a" width="100" height="100" patternUnits="userSpaceOnUse">
   <path d="m0 0" stroke="#000" stroke-linecap="square" stroke-width="2"/>
   <path d="m0 10 10-10" stroke="#000" stroke-linecap="square" stroke-width="2"/>
   <path d="m0 20 20-20" stroke="#000" stroke-linecap="square" stroke-width="2"/>
   <path d="m0 30 30-30" stroke="#000" stroke-linecap="square" stroke-width="2"/>
   <path d="m0 40 40-40" stroke="#000" stroke-linecap="square" stroke-width="2"/>
   <path d="m0 50 50-50" stroke="#000" stroke-linecap="square" stroke-width="2"/>
   <path d="m0 60 60-60" stroke="#000" stroke-linecap="square" stroke-width="2"/>
   <path d="m0 70 70-70" stroke="#000" stroke-linecap="square" stroke-width="2"/>
   <path d="m0 90 90-90" stroke="#000" stroke-linecap="square" stroke-width="2"/>
   <path d="m0 80 80-80" stroke="#000" stroke-linecap="square" stroke-width="2"/>
   <path d="m0 100 100-100" stroke="#000" stroke-linecap="square" stroke-width="2"/>
   <path d="m10 100 90-90" stroke="#000" stroke-linecap="square" stroke-width="2"/>
   <path d="m20 100 80-80" stroke="#000" stroke-linecap="square" stroke-width="2"/>
   <path d="m30 100 70-70" stroke="#000" stroke-linecap="square" stroke-width="2"/>
   <path d="m40 100 60-60" stroke="#000" stroke-linecap="square" stroke-width="2"/>
   <path d="m50 100 50-50" stroke="#000" stroke-linecap="square" stroke-width="2"/>
   <path d="m60 100 40-40" stroke="#000" stroke-linecap="square" stroke-width="2"/>
   <path d="m70 100 30-30" stroke="#000" stroke-linecap="square" stroke-width="2"/>
   <path d="m80 100 20-20" stroke="#000" stroke-linecap="square" stroke-width="2"/>
   <path d="m90 100 10-10" stroke="#000" stroke-linecap="square" stroke-width="2"/>
   <path d="m100 100" stroke="#000" stroke-linecap="square" stroke-width="2"/>
  </pattern>
 </defs>
 <path d="m0 0h200v150h-200z" fill="url(#a)"/>
</svg>
