<svg id="Layer_1" data-name="Layer 1" xmlns="http://www.w3.org/2000/svg" xmlns:xlink="http://www.w3.org/1999/xlink" viewBox="0 0 100 100"><defs><style>.cls-1,.cls-10,.cls-16,.cls-6,.cls-8,.cls-9{fill:none;}.cls-2{fill:#f4afb0;}.cls-3{fill:#8cd0dd;}.cls-4{clip-path:url(#clip-path);}.cls-5{fill:#57544b;}.cls-6{stroke:#e57d48;}.cls-10,.cls-16,.cls-6,.cls-8{stroke-linecap:round;}.cls-10,.cls-16,.cls-6,.cls-8,.cls-9{stroke-miterlimit:10;}.cls-10,.cls-16,.cls-6,.cls-9{stroke-width:2px;}.cls-7{fill:#e57d48;}.cls-8{stroke:#ef7e45;stroke-width:0.5px;}.cls-10,.cls-9{stroke:#fdcf00;}.cls-9{stroke-linecap:square;}.cls-11{fill:#db7a48;}.cls-12{fill:#ef8170;}.cls-13{fill:#f39a35;opacity:0.57;}.cls-14{fill:#fff;}.cls-15{fill:#231815;}.cls-16{stroke:#ef8147;}</style><clipPath id="clip-path"><rect class="cls-1" x="28.86" y="91.83" width="28.58" height="8.19"/></clipPath></defs><title>sprite</title><rect class="cls-2" x="-0.01" y="-0.02" width="100.03" height="100.05"/><path class="cls-3" d="M0,69.7,27.31,52.82l13,20.86L87.09,50.59l13,13.07q0,18.2,0,36.4L0,100Z"/><g class="cls-4"><path class="cls-5" d="M43.71,92.6a109.59,109.59,0,0,0-12.07,7.29c-1.57,1.1-.07,3.7,1.52,2.59a107.76,107.76,0,0,1,12.07-7.29c1.71-.89.2-3.48-1.52-2.59Z"/><path class="cls-5" d="M53.74,93.54c-4,4.81-7.84,9.85-12.39,14.16-1.41,1.33.72,3.45,2.12,2.13,4.55-4.31,8.39-9.36,12.39-14.17,1.23-1.47-.88-3.6-2.12-2.12Z"/></g><path class="cls-6" d="M39.83,29.65c-2.34,10.78-11.31,18-20,16.07"/><ellipse class="cls-7" cx="17.5" cy="45.41" rx="2.83" ry="1.58"/><path class="cls-8" d="M15.37,45.53a1.84,1.84,0,0,0,.59.54,3.59,3.59,0,0,0,2.69.06"/><line class="cls-6" x1="44.54" y1="45.66" x2="44.54" y2="91.68"/><line class="cls-9" x1="44.55" y1="92.34" x2="44.53" y2="92.34"/><line class="cls-9" x1="44.55" y1="88.34" x2="44.53" y2="88.34"/><line class="cls-9" x1="44.55" y1="84.34" x2="44.53" y2="84.34"/><line class="cls-9" x1="44.55" y1="80.34" x2="44.53" y2="80.34"/><line class="cls-9" x1="44.55" y1="76.34" x2="44.53" y2="76.34"/><line class="cls-9" x1="44.55" y1="72.34" x2="44.53" y2="72.34"/><line class="cls-9" x1="44.55" y1="68.34" x2="44.53" y2="68.34"/><line class="cls-9" x1="44.55" y1="64.34" x2="44.53" y2="64.34"/><line class="cls-9" x1="44.55" y1="60.34" x2="44.53" y2="60.34"/><line class="cls-9" x1="44.55" y1="56.34" x2="44.53" y2="56.34"/><line class="cls-9" x1="44.55" y1="52.34" x2="44.53" y2="52.34"/><line class="cls-10" x1="44.63" y1="93.28" x2="40.71" y2="95.19"/><path class="cls-11" d="M45.63,93.31a1,1,0,0,1-.19.57,1.19,1.19,0,0,1-.19.18l0,0s-.12.08-.28.16l-.14.06c-.1,0-.1.06-.12.06s0-.23-.09-.57a1.19,1.19,0,0,1,0-.62c0-.07,0-.12.61-.66.19-.19.31-.3.36-.27s0,.05,0,.17,0,.09,0,.18A4.22,4.22,0,0,1,45.63,93.31Z"/><path class="cls-11" d="M40.41,94.73c.51.52.54,1.06.9,1.13,0,0,.17,0,.17.06s0,0-.2.11l-.19.09a1.19,1.19,0,0,1-.33.07,1,1,0,0,1-.54-.13A1,1,0,0,1,39.73,95a.85.85,0,0,1,.22-.44l.14-.13h0Z"/><rect class="cls-12" x="37.28" y="8.66" width="25.22" height="43.06" rx="12" ry="12"/><rect class="cls-13" x="40.02" y="8.74" width="24.72" height="44.62" rx="12" ry="12"/><line class="cls-6" x1="55.07" y1="47.12" x2="55.07" y2="93.14"/><line class="cls-9" x1="55.08" y1="92.18" x2="55.06" y2="92.18"/><line class="cls-9" x1="55.08" y1="88.18" x2="55.06" y2="88.18"/><line class="cls-9" x1="55.08" y1="84.18" x2="55.06" y2="84.18"/><line class="cls-9" x1="55.08" y1="80.18" x2="55.06" y2="80.18"/><line class="cls-9" x1="55.08" y1="76.18" x2="55.06" y2="76.18"/><line class="cls-9" x1="55.08" y1="72.18" x2="55.06" y2="72.18"/><line class="cls-9" x1="55.08" y1="68.18" x2="55.06" y2="68.18"/><line class="cls-9" x1="55.08" y1="64.18" x2="55.06" y2="64.18"/><line class="cls-9" x1="55.08" y1="60.18" x2="55.06" y2="60.18"/><line class="cls-9" x1="55.08" y1="56.18" x2="55.06" y2="56.18"/><line class="cls-9" x1="55.08" y1="52.18" x2="55.06" y2="52.18"/><line class="cls-10" x1="55.17" y1="93.53" x2="51.94" y2="96.07"/><path class="cls-11" d="M56.14,93.31a1,1,0,0,1-.12.77l-.16.21h0a1.52,1.52,0,0,1-.26.19l-.13.09c-.09.06-.09.07-.11.07s-.06-.23-.16-.55a1.35,1.35,0,0,1-.1-.62,0,0,0,0,1,0,0,1.44,1.44,0,0,1,.51-.7c.24-.21.4-.36.47-.32s0,.07,0,.4a.85.85,0,0,0,0,.23C56.1,93.18,56.13,93.25,56.14,93.31Z"/><path class="cls-11" d="M51.51,95.65a1.86,1.86,0,0,0,.6.79c.31.19.62.15.63.26s-.12.15-.22.21a.82.82,0,0,1-.19.09.72.72,0,0,1-.33.07,1,1,0,0,1-.54-.12,1,1,0,0,1-.44-.47,1.07,1.07,0,0,1-.09-.46,1,1,0,0,1,.06-.25.68.68,0,0,1,.15-.31.66.66,0,0,1,.19-.18C51.37,95.37,51.43,95.5,51.51,95.65Z"/><circle class="cls-14" cx="42.52" cy="20.13" r="1.65"/><circle class="cls-15" cx="41.83" cy="20.34" r="0.45"/><circle class="cls-14" cx="51.13" cy="20" r="1.65"/><circle class="cls-15" cx="50.44" cy="20.16" r="0.45"/><path class="cls-16" d="M60.06,25c9.82,8.39,12.26,21.62,5.46,29.58"/><ellipse class="cls-7" cx="63.95" cy="55.88" rx="2.83" ry="1.58" transform="translate(-20.94 58.31) rotate(-42.79)"/><path class="cls-8" d="M62.77,57.42a1.68,1.68,0,0,0,.8-.09,3.7,3.7,0,0,0,1.79-2"/></svg>